<svg width="55" height="49" viewBox="0 0 55 49" fill="none" xmlns="http://www.w3.org/2000/svg">
<path d="M54.9856 24.4521C54.9856 26.1748 53.5532 27.5242 51.9298 27.5242H48.8739L48.9408 42.8559C48.9408 43.1143 48.9217 43.3727 48.893 43.6311V45.1719C48.893 47.2869 47.1837 49 45.0733 49H43.5454C43.4403 49 43.3353 49 43.2302 48.9904C43.0965 49 42.9629 49 42.8292 49H39.7256H37.4337C35.3233 49 33.614 47.2869 33.614 45.1719V42.875V36.75C33.614 35.0561 32.2484 33.6875 30.5582 33.6875H24.4465C22.7563 33.6875 21.3907 35.0561 21.3907 36.75V42.875V45.1719C21.3907 47.2869 19.6814 49 17.5709 49H15.2791H12.2328C12.0896 49 11.9463 48.9904 11.8031 48.9809C11.6885 48.9904 11.5739 49 11.4593 49H9.9314C7.82098 49 6.11163 47.2869 6.11163 45.1719V34.4531C6.11163 34.367 6.11163 34.2713 6.12118 34.1852V27.5242H3.05582C1.33692 27.5242 0 26.1844 0 24.4521C0 23.5908 0.286483 22.8252 0.954942 22.1553L25.4397 0.765625C26.1081 0.0957031 26.8721 0 27.5405 0C28.209 0 28.9729 0.191406 29.5459 0.669922L53.9351 22.1553C54.6991 22.8252 55.0811 23.5908 54.9856 24.4521Z" fill="white"/>
</svg>
