<svg width="51" height="49" viewBox="0 0 51 49" fill="none" xmlns="http://www.w3.org/2000/svg">
<path d="M37.6424 8.08281L49.8744 21.5141C50.5916 22.3016 51 23.3844 51 24.5C51 25.6156 50.5916 26.6984 49.8744 27.4859L37.6424 40.9172C37.0049 41.6172 36.1482 42 35.2518 42C33.3891 42 31.875 40.3375 31.875 38.2922V31.5H19.125C17.3619 31.5 15.9375 29.9359 15.9375 28V21C15.9375 19.0641 17.3619 17.5 19.125 17.5H31.875V10.7078C31.875 8.6625 33.3891 7 35.2518 7C36.1482 7 37.0049 7.39375 37.6424 8.08281ZM15.9375 7H9.5625C7.79941 7 6.375 8.56406 6.375 10.5V38.5C6.375 40.4359 7.79941 42 9.5625 42H15.9375C17.7006 42 19.125 43.5641 19.125 45.5C19.125 47.4359 17.7006 49 15.9375 49H9.5625C4.2832 49 0 44.2969 0 38.5V10.5C0 4.70312 4.2832 0 9.5625 0H15.9375C17.7006 0 19.125 1.56406 19.125 3.5C19.125 5.43594 17.7006 7 15.9375 7Z" fill="white"/>
</svg>
