<svg width="43" height="49" viewBox="0 0 43 49" fill="none" xmlns="http://www.w3.org/2000/svg">
<path d="M21.5 24.5C24.7584 24.5 27.8833 23.2094 30.1873 20.9121C32.4913 18.6147 33.7857 15.4989 33.7857 12.25C33.7857 9.0011 32.4913 5.88526 30.1873 3.58794C27.8833 1.29062 24.7584 0 21.5 0C18.2416 0 15.1167 1.29062 12.8127 3.58794C10.5087 5.88526 9.21429 9.0011 9.21429 12.25C9.21429 15.4989 10.5087 18.6147 12.8127 20.9121C15.1167 23.2094 18.2416 24.5 21.5 24.5ZM17.1136 29.0938C7.65938 29.0938 0 36.7309 0 46.1576C0 47.7271 1.27656 49 2.85067 49H40.1493C41.7234 49 43 47.7271 43 46.1576C43 36.7309 35.3406 29.0938 25.8864 29.0938H17.1136Z" fill="white"/>
</svg>
